<svg width="8" height="8" viewBox="0 0 8 8" fill="none" xmlns="http://www.w3.org/2000/svg">
<path d="M2.99096 3.99774L0.799236 1.80678C0.522887 1.53053 0.522887 1.07328 0.799236 0.797033C1.07558 0.520781 1.53299 0.520781 1.80934 0.797033L4.00107 2.988L6.19279 0.797033C6.46914 0.520781 6.92655 0.520781 7.20289 0.797033C7.47924 1.07328 7.47924 1.53053 7.20289 1.80678L5.01117 3.99774L7.20289 6.18871C7.47924 6.46496 7.47924 6.9222 7.20289 7.19845C7.05996 7.34134 6.8789 7.40803 6.69784 7.40803C6.51679 7.40803 6.33573 7.34134 6.19279 7.19845L4.00107 5.00749L1.80934 7.19845C1.6664 7.34134 1.48534 7.40803 1.30429 7.40803C1.12323 7.40803 0.942174 7.34134 0.799236 7.19845C0.522887 6.9222 0.522887 6.46496 0.799236 6.18871L2.99096 3.99774Z" fill="#1C1C28"/>
</svg>
