<svg width="13" height="14" viewBox="0 0 13 14" fill="none" xmlns="http://www.w3.org/2000/svg">
<g clip-path="url(#clip0_1_21)">
<path d="M5.15977 0.88862C5.51523 0.959714 5.74492 1.30425 5.67383 1.65971L5.26367 3.7187H8.29883L8.76094 1.40268C8.83203 1.04721 9.17656 0.817527 9.53203 0.88862C9.8875 0.959714 10.1172 1.30425 10.0461 1.65971L9.63867 3.7187H11.5938C11.9574 3.7187 12.25 4.01128 12.25 4.37495C12.25 4.73862 11.9574 5.0312 11.5938 5.0312H9.37617L8.58867 8.9687H10.7188C11.0824 8.9687 11.375 9.26128 11.375 9.62495C11.375 9.98862 11.0824 10.2812 10.7188 10.2812H8.32617L7.86406 12.5972C7.79297 12.9527 7.44844 13.1824 7.09297 13.1113C6.7375 13.0402 6.50781 12.6957 6.57891 12.3402L6.98633 10.2812H3.95117L3.48906 12.5972C3.41797 12.9527 3.07344 13.1824 2.71797 13.1113C2.3625 13.0402 2.13281 12.6957 2.20391 12.3402L2.61133 10.2812H0.65625C0.292578 10.2812 0 9.98862 0 9.62495C0 9.26128 0.292578 8.9687 0.65625 8.9687H2.87383L3.66133 5.0312H1.53125C1.16758 5.0312 0.875 4.73862 0.875 4.37495C0.875 4.01128 1.16758 3.7187 1.53125 3.7187H3.92383L4.38594 1.40268C4.45703 1.04721 4.80156 0.817527 5.15703 0.88862H5.15977ZM5.00117 5.0312L4.21367 8.9687H7.24883L8.03633 5.0312H5.00117Z" fill="#3E97FF"/>
</g>
<defs>
<clipPath id="clip0_1_21">
<rect width="12.25" height="14" fill="white"/>
</clipPath>
</defs>
</svg>
