<svg width="20" height="21" viewBox="0 0 20 21" fill="none" xmlns="http://www.w3.org/2000/svg">
<g clip-path="url(#clip0_1_478)">
<path d="M3.13728 13.7781L2.41853 16.2187L2.03103 17.5375C1.95291 17.8031 2.02478 18.0875 2.21853 18.2812C2.41228 18.475 2.69666 18.5469 2.95916 18.4719L4.28103 18.0812L6.72166 17.3625C7.10916 17.25 7.46228 17.0531 7.76541 16.7875C7.80916 16.75 7.84978 16.7094 7.89041 16.6687L17.3967 7.16562C18.081 6.48124 18.1654 5.42812 17.6529 4.64999C17.581 4.54062 17.4935 4.43437 17.3967 4.33749L16.1654 3.10312C15.3842 2.32187 14.1185 2.32187 13.3373 3.10312L3.83103 12.6094C3.50603 12.9344 3.26853 13.3375 3.13728 13.7781ZM4.57478 14.2C4.62791 14.025 4.71541 13.8625 4.83728 13.725C4.85603 13.7062 4.87166 13.6875 4.89041 13.6687L12.031 6.53124L13.9685 8.46874L6.83103 15.6094C6.68416 15.7562 6.49978 15.8656 6.29978 15.925L5.56853 16.1406L3.85603 16.6437L4.35916 14.9312L4.57478 14.2Z" fill="#6B7280"/>
</g>
<defs>
<clipPath id="clip0_1_478">
<rect width="16" height="16" fill="white" transform="translate(2 2.5)"/>
</clipPath>
</defs>
</svg>
